<svg width="238" height="73" viewBox="0 0 238 73" fill="none" xmlns="http://www.w3.org/2000/svg">
<path d="M17.3773 14.1039C18.1668 8.3109 21.5068 5.85516 24.4217 3.71426C25.7577 2.76975 26.9722 1.8882 27.6402 0.754785C28.0046 0.188077 28.7941 -0.000830069 29.3406 0.376976C29.4621 0.502911 29.5835 0.62885 29.705 0.754785C30.4337 1.82524 31.5875 2.64381 32.8628 3.58833C35.7777 5.72923 39.1177 8.18497 39.9072 13.978C45.1297 11.7741 48.8341 13.5372 52.0527 15.1114C53.5101 15.8041 54.8461 16.4337 56.1214 16.5597C56.7894 16.6226 57.336 17.2523 57.2752 17.945C57.2752 18.1339 57.2145 18.3228 57.093 18.5117C56.6072 19.6451 56.425 21.1563 56.3036 22.7935C56 26.5085 55.5749 30.7274 51.1418 34.3165C55.5749 37.9057 55.9392 42.1245 56.3036 45.8396C56.425 47.4768 56.6072 49.051 57.1538 50.2474C57.4574 50.877 57.2145 51.6326 56.6072 51.9475C56.425 52.0104 56.3036 52.0734 56.1214 52.0734C54.9068 52.1993 53.5709 52.829 52.1134 53.5217C48.8341 55.0958 45.1297 56.859 39.9072 54.6551C39.1177 60.4481 35.7777 62.9038 32.8628 65.0447C31.5875 65.9893 30.373 66.8708 29.705 67.8783C29.6442 68.0042 29.5228 68.1302 29.3406 68.2561C28.7941 68.6339 28.0046 68.508 27.6402 67.8783C26.9115 66.8078 25.697 65.9263 24.4217 64.9188C21.5068 62.7779 18.1668 60.3222 17.3773 54.5291C12.094 56.733 8.38964 54.9699 5.17109 53.3957C3.71363 52.7031 2.37763 52.0734 1.16308 51.9475C0.980902 51.9475 0.859446 51.8845 0.677263 51.8215C0.0699892 51.5067 -0.172917 50.7511 0.13072 50.1214C0.677267 48.925 0.798718 47.4138 0.980901 45.7137C1.28454 41.9986 1.6489 37.8427 6.14273 34.1906C1.70963 30.5385 1.28454 26.3196 0.980901 22.6675C0.859446 21.0304 0.677262 19.5821 0.191442 18.3857C0.130715 18.1968 0.0699855 18.0709 0.00925812 17.819C-0.0514693 17.1264 0.495083 16.4967 1.16308 16.4337C2.43836 16.3708 3.77436 15.6781 5.23182 14.9855C8.45037 13.6632 12.094 11.9001 17.3773 14.1039Z" fill="black"/>
<path d="M23.8753 25.8159L24.1182 25.3751C24.604 24.4306 24.7255 23.4231 24.4826 22.4156C24.2397 21.4711 23.6324 20.5895 22.7215 20.0858L22.6608 20.0228L19.6244 18.1968V21.9748C19.6244 23.0453 20.0495 23.9898 20.7175 24.6824C21.3855 25.3751 22.2964 25.8159 23.3288 25.8159H23.8753ZM10.6367 34.3795C11.6691 35.0091 12.7015 35.6388 13.7946 36.2685C14.7055 36.7722 15.6771 36.8982 16.6487 36.6463C17.5597 36.3944 18.4098 35.7647 18.8957 34.8202L18.9564 34.7573L19.1993 34.3795L18.9564 34.0017C18.9564 33.9387 18.8957 33.8757 18.8957 33.8757C18.4098 32.9942 17.5597 32.4275 16.6487 32.1756C15.7378 31.9237 14.7662 31.9867 13.916 32.4904C13.8553 32.5534 13.7945 32.5534 13.7338 32.6164L10.6367 34.3795ZM19.6851 50.4992L22.8429 48.6101C23.7538 48.1064 24.3004 47.2248 24.604 46.2803C24.8469 45.3358 24.7255 44.2654 24.2397 43.3209L23.9968 42.8801H23.5109C22.4786 42.8801 21.5677 43.3209 20.8997 44.0135C20.2317 44.7061 19.8066 45.6507 19.8066 46.7211V50.4992H19.6851ZM37.6604 50.4992V46.7211C37.6604 45.6507 37.2353 44.7061 36.5673 44.0135C35.8993 43.3209 34.9884 42.8801 33.9561 42.8801H33.4702L33.2273 43.3209C32.7415 44.2654 32.6201 45.2728 32.863 46.2803C33.1059 47.2248 33.7131 48.1064 34.6241 48.6101L37.6604 50.4992ZM46.6481 34.3795L43.6117 32.5534L43.551 32.4904C42.6401 31.9867 41.6684 31.8608 40.6968 32.1126C39.7859 32.3645 38.9357 32.9942 38.4499 33.9387L38.207 34.3795L38.4499 34.7573L38.5106 34.8202C38.9964 35.7647 39.8466 36.3315 40.7575 36.6463C41.6684 36.8982 42.7008 36.7722 43.6117 36.2685L46.6481 34.3795ZM37.6604 18.1968L34.6241 20.0228L34.5633 20.0858C33.6524 20.5895 33.1059 21.4711 32.8022 22.4156C32.5593 23.3601 32.6808 24.4306 33.1666 25.3751L33.4095 25.8159H33.8953C34.9277 25.8159 35.8386 25.3751 36.5066 24.6824C37.1746 23.9898 37.5997 23.0453 37.5997 21.9748V18.1968H37.6604Z" fill="#009CA5"/>
<path d="M21.9922 34.3166C23.146 36.3316 24.2391 38.3465 25.3322 40.2985H32.0122L33.6519 37.2761L33.7126 37.2131L35.3522 34.2536L33.7126 31.2312L32.0729 28.2087H25.3929L21.9922 34.3166Z" fill="#E41D37"/>
<path d="M20.5351 36.8353C19.685 37.9687 18.5311 38.7243 17.2559 39.0391C15.7377 39.4799 14.0373 39.291 12.5799 38.4095C12.4584 38.3465 12.3369 38.2835 12.2155 38.2206L8.51111 36.0167C8.45038 36.0167 8.38966 35.9537 8.32893 35.8908L8.2682 35.8278L8.20747 35.7648C3.95655 38.9132 3.65291 42.6283 3.34928 45.9656C3.22782 47.2879 3.10637 48.5473 2.80273 49.6807C3.89583 49.9955 4.98892 50.4992 6.14274 51.0659C9.05766 52.4512 12.3977 54.0884 17.1344 51.8216V51.7586V46.6582C17.1344 44.8951 17.8024 43.258 18.9562 42.1245C19.8671 41.18 21.0817 40.4874 22.4784 40.2985L20.5351 36.8353ZM26.6686 42.9431C27.1544 44.2654 27.2152 45.7137 26.9115 46.9731C26.4864 48.5472 25.5148 49.9955 23.9966 50.8771L23.7537 51.003L23.693 51.0659L19.8064 53.3958L19.7457 53.4587C20.2315 58.811 23.2071 61.0148 25.8184 62.9039C26.8508 63.6595 27.8224 64.3521 28.6726 65.2337C29.4621 64.4151 30.4337 63.6595 31.4661 62.9668C34.0774 61.0148 37.1137 58.8739 37.5996 53.4587L37.5388 53.3958L33.6523 51.0659L33.5915 51.003L33.3486 50.8771C31.8912 49.9955 30.8588 48.5472 30.4337 46.9731C30.0693 45.6507 30.1301 44.2654 30.6766 42.9431H26.6686ZM34.8061 40.4244C36.1421 40.6133 37.3566 41.306 38.3283 42.2505C39.4214 43.3839 40.1501 45.0211 40.1501 46.7842V51.6956V51.8845V51.9475C44.8868 54.2143 48.2269 52.5772 51.1418 51.1919C52.2956 50.6252 53.328 50.1214 54.4818 49.8066C54.1781 48.6102 54.0567 47.4138 53.9352 46.0915C53.6316 42.7542 53.328 38.9762 49.077 35.8908L49.0163 35.9537L48.9556 36.0167C48.8949 36.0797 48.8341 36.0797 48.7734 36.1426L45.069 38.3465C44.9476 38.4095 44.8261 38.4724 44.7047 38.5354C43.2472 39.4169 41.5468 39.6058 40.0287 39.1651C38.7534 38.7873 37.5995 38.0317 36.7494 36.8982L35.7777 38.5984L35.717 38.6613L34.8061 40.4244ZM49.0163 32.8053C53.328 29.7199 53.6316 25.8789 53.9352 22.6046C54.0567 21.3452 54.1781 20.0859 54.4211 18.9525C53.2672 18.6376 52.1741 18.1339 51.0203 17.5672C48.1054 16.1819 44.7654 14.6077 40.0894 16.8116V16.8745V17.0634V21.9749C40.0894 23.738 39.4214 25.3752 38.2675 26.5086C37.3566 27.4531 36.1421 28.1457 34.7454 28.3346L35.717 30.0977L36.6886 31.8608C37.5388 30.7274 38.6926 29.9718 39.9679 29.594C41.4861 29.1532 43.1865 29.3421 44.6439 30.2237L44.7047 30.2866L49.0163 32.8053ZM19.7457 15.3003L23.9359 17.819C23.9966 17.819 24.0573 17.882 24.1181 17.945C25.5755 18.8265 26.5472 20.2118 26.9115 21.786C27.2759 23.1083 27.2152 24.4936 26.6686 25.8159H30.6159C30.1301 24.4936 30.0693 23.0454 30.373 21.786C30.7981 20.2118 31.7697 18.7636 33.2879 17.882L33.3486 17.819L37.5388 15.3003H37.5996C37.1137 9.9481 34.0774 7.74423 31.4661 5.79223C30.4337 5.03662 29.4621 4.34397 28.6726 3.52539C27.8224 4.40694 26.8508 5.09959 25.8184 5.8552C23.2071 7.74423 20.2315 9.9481 19.7457 15.3003ZM17.1951 16.8745V16.8116C12.4584 14.6077 9.17911 16.1819 6.2642 17.5672C5.11037 18.1339 4.01729 18.6376 2.86347 18.9525C3.1671 20.0859 3.28855 21.3452 3.34928 22.6046C3.65291 25.9419 3.95655 29.7199 8.20747 32.8683L8.2682 32.8053L12.5191 30.2866C13.9766 29.4051 15.6769 29.2162 17.1951 29.657C18.4704 30.0348 19.6242 30.7904 20.4744 31.9238L22.4784 28.3976C21.1424 28.2087 19.9279 27.5161 18.9562 26.5715C17.8631 25.4381 17.1344 23.801 17.1344 22.0379V16.8745H17.1951Z" fill="#DDA143"/>
<path fill-rule="evenodd" clip-rule="evenodd" d="M99.1161 38.0945C98.2659 40.1725 96.7477 41.6837 94.7437 42.6282C92.3753 43.7616 89.3389 44.0135 86.7884 44.1394C83.752 44.2024 80.2298 44.0765 77.3149 43.006C75.3109 42.2504 73.2462 41.117 71.9709 39.2909C70.8171 37.6538 70.3313 35.7018 70.5134 33.6868C70.6956 31.5459 71.3636 29.468 72.2745 27.5789C73.3676 25.3751 74.7644 23.3601 76.404 21.597C78.1651 19.645 80.0477 17.8819 82.1731 16.3707L82.9018 15.867L83.5091 16.4966C84.2986 17.3152 85.088 18.0708 85.8775 18.8264C86.9098 19.8339 87.9422 20.8414 88.9746 21.8489C90.1284 22.9823 91.2822 24.1787 92.3753 25.3751C93.5291 26.6344 94.5615 27.8938 95.5332 29.2791C96.4441 30.6014 97.2943 31.9237 97.9623 33.372C98.6303 34.6943 99.0553 36.1425 99.1161 37.6538V37.9056V38.0945ZM134.277 33.4979C135.067 33.246 136.038 33.0571 137.253 32.8682C138.407 32.6793 139.561 32.6163 140.593 32.5534C141.625 32.4904 142.658 32.6793 143.69 33.1201C144.662 33.5609 145.573 34.1905 146.423 34.9461C147.151 35.5758 147.637 36.3314 147.88 37.213C148.123 38.0316 148.184 38.9761 148.062 39.8576C147.941 40.8021 147.637 41.6837 147.212 42.6912C146.787 43.6357 146.18 44.5802 145.512 45.4617C144.844 46.3433 144.054 47.1619 143.143 47.9175C142.233 48.6731 141.322 49.3028 140.35 49.8695C139.925 50.1213 139.318 50.3102 138.589 50.4362C137.86 50.5621 137.071 50.6881 136.16 50.814C135.31 50.877 134.399 50.9399 133.488 51.0029C132.577 51.0658 131.727 51.0659 130.937 51.0659C130.148 51.0659 129.48 51.0659 128.873 51.0659C128.265 51.0659 127.84 51.0659 127.597 51.0659L128.447 48.0434V28.7753C128.447 26.6974 128.69 24.9343 129.176 23.4231C129.662 21.9748 130.269 20.7155 130.998 19.7709C131.727 18.8264 132.577 18.0708 133.488 17.63C134.399 17.1263 135.31 16.8744 136.16 16.7485C137.01 16.6226 137.799 16.6855 138.528 16.8744C139.257 17.0633 139.803 17.3782 140.168 17.756C139.5 17.756 138.771 17.8819 138.103 18.1338C137.374 18.3227 136.767 18.7635 136.16 19.3302C135.553 19.9598 135.127 20.7784 134.763 21.9118C134.399 23.0453 134.217 24.5565 134.277 26.3825V33.4979ZM134.217 46.5322C134.824 46.7211 135.553 46.91 136.221 46.973C136.949 47.0359 137.617 47.0359 138.285 46.91C138.953 46.784 139.621 46.5951 140.168 46.2803C140.775 45.9655 141.261 45.5247 141.686 44.958C142.293 44.1394 142.597 43.2579 142.536 42.2504C142.475 41.3059 142.111 40.2354 141.504 39.165C140.654 37.6538 139.621 36.7092 138.346 36.3314C137.071 35.8907 135.674 36.0796 134.095 36.8981L134.217 46.5322ZM154.742 37.3389C154.317 38.0316 154.135 38.7872 154.074 39.6687C154.014 40.4873 154.135 41.3688 154.56 42.3134C155.775 42.5023 157.05 42.5023 158.325 42.3134C159.601 42.1245 160.633 41.8096 161.422 41.3688C162.212 40.9281 162.698 40.2984 162.819 39.6057C162.941 38.8501 162.515 38.0316 161.544 37.087C160.269 35.8907 158.993 35.261 157.839 35.261C156.564 35.198 155.532 35.8907 154.742 37.3389ZM183.284 35.8907C182.495 36.0796 181.584 36.2685 180.612 36.5203C179.641 36.7722 178.669 37.087 177.819 37.5908C176.969 38.0316 176.24 38.5983 175.633 39.3539C175.025 40.0465 174.782 40.991 174.782 42.0615C174.782 42.8801 175.086 43.5727 175.633 44.2654C176.179 44.958 177.09 45.4617 178.365 45.8396C178.487 45.8396 178.73 45.8396 179.094 45.8396C179.458 45.8396 179.884 45.7766 180.369 45.6506C180.855 45.5877 181.341 45.4617 181.827 45.3358C182.313 45.2099 182.798 45.021 183.224 44.895V35.8907H183.284ZM194.519 32.0496L190.389 27.7678L194.519 23.4231L198.648 27.7678L194.519 32.0496ZM201.32 46.6581V39.4168C201.32 39.102 201.32 38.7242 201.32 38.4094C201.32 38.0316 201.26 37.7167 201.199 37.4019C201.138 37.087 200.956 36.8352 200.713 36.6463C200.47 36.4574 200.167 36.3944 199.681 36.3944C199.377 36.3944 199.073 36.5833 198.648 36.8352C198.223 37.087 197.859 37.4019 197.434 37.7797C197.191 38.0316 196.887 38.2834 196.705 38.5353C196.705 38.6612 196.705 38.7872 196.705 38.9131C196.705 39.7317 196.705 40.3614 196.705 40.7392C196.705 41.3688 196.705 42.0615 196.766 42.8171C196.826 43.5727 196.948 44.3283 197.069 45.021C197.191 45.7136 197.434 46.3433 197.737 46.7841C198.041 47.2878 198.405 47.5397 198.891 47.6026C199.377 47.6656 199.984 47.4767 200.713 46.973C201.017 46.91 201.138 46.7841 201.32 46.6581ZM219.781 43.3208C219.842 43.7616 219.964 44.2654 220.085 44.8321C220.207 45.3358 220.328 45.9025 220.51 46.4063C220.692 46.91 220.875 47.4137 221.117 47.7915C221.36 48.2323 221.725 48.5472 222.15 48.7361C221.725 49.3028 221.239 49.8065 220.692 50.2473C220.146 50.6881 219.599 50.9399 218.992 51.0029C217.899 51.1288 216.988 50.9399 216.32 50.4991C215.652 49.9954 215.166 49.3657 214.741 48.5471C214.377 47.7286 214.073 46.7841 213.891 45.7766C213.709 44.7061 213.587 43.6987 213.466 42.6912C213.344 41.6837 213.223 40.7392 213.041 39.8576C212.859 38.9761 212.616 38.3464 212.251 37.8427C211.826 37.2759 211.401 37.0241 210.976 37.213C210.551 37.3389 210.126 37.7167 209.761 38.2834C209.397 38.8501 209.033 39.6057 208.668 40.5503C208.365 41.4948 208.061 42.4393 207.879 43.3838C207.757 44.0765 207.454 44.8321 207.029 45.7136C206.604 46.5952 206.118 47.4137 205.511 48.1693C204.903 48.9249 204.235 49.5546 203.507 50.0584C202.778 50.5621 202.049 50.814 201.32 50.814V47.4767C201.017 47.9175 200.652 48.2953 200.288 48.6731C199.863 49.1139 199.438 49.4917 199.073 49.7435C198.648 50.0584 198.102 50.3102 197.495 50.5621C196.887 50.814 196.28 50.9399 195.612 51.0029C194.58 51.1918 193.79 51.0029 193.244 50.4362C192.636 49.9324 192.211 49.1768 191.908 48.2323C191.604 47.2878 191.361 46.2803 191.3 45.2099C191.179 44.1394 191.179 43.069 191.179 42.1245C191.179 41.8096 191.179 41.3059 191.24 40.6762C191.3 40.0465 191.3 39.3539 191.24 38.7242C191.24 38.0945 191.118 37.4649 190.997 37.0241C190.875 36.5203 190.572 36.2685 190.207 36.2685C190.025 36.2685 189.721 36.3314 189.418 36.5203C189.357 36.5833 189.236 36.5833 189.175 36.6463C189.175 37.6538 189.175 38.7872 189.236 39.9206C189.296 41.8096 189.296 43.6986 189.357 45.6506C189.357 47.6026 189.418 49.4917 189.357 51.3807C189.357 53.2697 189.296 54.9699 189.114 56.544C188.993 57.6775 188.81 58.7479 188.507 59.6295C188.264 60.511 187.9 61.3296 187.474 62.0852C187.049 62.8408 186.564 63.5335 186.017 64.1002C185.47 64.7298 184.863 65.2965 184.195 65.8632C182.738 67.1226 181.402 68.1931 180.066 69.1376C178.73 70.0821 177.394 70.8377 175.997 71.4044C174.6 71.9081 173.143 72.223 171.625 72.2859C170.106 72.3489 168.467 72.097 166.706 71.5303C165.916 71.2785 165.066 70.9007 164.277 70.4599C163.487 70.0191 162.819 69.5783 162.212 69.0116C161.605 68.5079 161.119 67.8782 160.754 67.2485C160.39 66.6189 160.208 65.9262 160.208 65.2336C160.208 63.7223 160.572 62.2741 161.362 60.8888C162.151 59.5035 163.123 58.1812 164.277 56.9848C165.43 55.7884 166.706 54.718 168.042 53.8364C169.378 52.9549 170.653 52.1993 171.868 51.6326L172.839 52.766C172.232 53.0179 171.625 53.3957 170.835 53.7735C170.106 54.1513 169.378 54.592 168.649 55.0958C167.92 55.5995 167.252 56.1033 166.645 56.7329C166.038 57.2996 165.552 57.9293 165.188 58.622C164.823 59.3146 164.641 60.0073 164.702 60.7629C164.702 61.5185 165.005 62.2741 165.491 63.0927C165.977 63.7853 166.584 64.478 167.374 65.1076C168.163 65.7373 169.074 66.2411 170.046 66.6189C171.078 67.0596 172.11 67.3115 173.264 67.5004C174.418 67.6893 175.572 67.6893 176.786 67.5634C178.669 67.1226 180.066 66.304 181.037 65.0447C181.948 63.8483 182.616 62.4 182.981 60.7629C183.345 59.1257 183.466 57.3626 183.466 55.4106C183.406 53.5216 183.406 51.6326 183.345 49.8695V47.9804L182.616 49.4917C181.523 49.8065 180.491 50.1213 179.519 50.3732C178.548 50.6251 177.637 50.751 176.665 50.751C175.754 50.751 174.843 50.5621 173.932 50.1843C173.021 49.8065 172.05 49.1768 171.078 48.2323C170.349 47.5397 169.864 46.7841 169.56 45.9655C169.56 45.9025 169.499 45.8395 169.499 45.7766C168.71 46.5322 167.92 47.2248 167.009 47.8545C166.098 48.4842 165.248 49.0509 164.337 49.4917C163.426 49.9324 162.576 50.2473 161.787 50.4362C160.997 50.6251 160.269 50.6881 159.722 50.6251C158.386 50.751 157.05 50.751 155.714 50.4991C154.378 50.3102 153.224 49.9324 152.131 49.3657C151.038 48.862 150.188 48.1064 149.459 47.2248C148.73 46.3433 148.305 45.2099 148.062 43.9505C147.88 42.5652 147.941 41.2429 148.245 39.9836C148.548 38.7242 149.034 37.6538 149.763 36.6463C150.491 35.6388 151.342 34.7572 152.374 34.0646C153.406 33.309 154.56 32.7423 155.896 32.3645C156.746 32.1126 157.718 31.9237 158.872 31.7978C160.026 31.6718 161.058 31.6718 162.09 31.7978C163.305 31.9237 164.216 32.2385 164.945 32.6793C165.673 33.1201 166.281 33.6868 166.766 34.3794C167.192 35.0091 167.617 35.6388 167.92 36.2685C168.224 36.9611 168.467 37.5908 168.528 38.2834C168.588 38.9131 168.528 39.5428 168.224 40.1095C167.981 40.6762 167.495 41.1799 166.827 41.5577C166.038 41.9985 165.188 42.4393 164.216 42.8801C163.244 43.3208 162.273 43.6986 161.24 44.0135C160.208 44.3283 159.297 44.5802 158.325 44.7061C157.414 44.8321 156.564 44.895 155.896 44.7061C156.443 45.4617 157.171 45.9655 158.082 46.2803C158.993 46.5951 160.086 46.7211 161.179 46.7211C162.333 46.7211 163.487 46.5322 164.702 46.2174C165.916 45.9025 167.07 45.3988 168.102 44.8321C168.467 44.6432 168.831 44.4543 169.135 44.2024C169.135 43.8875 169.135 43.6357 169.196 43.3208C169.317 42.4393 169.621 41.5577 170.106 40.6762C170.592 39.7946 171.2 38.9761 171.989 38.2205C173.021 37.15 174.297 36.2685 175.754 35.5758C177.272 34.8202 178.851 34.2535 180.491 33.7498C182.13 33.246 183.831 32.9312 185.531 32.6793C187.232 32.4904 188.75 32.3645 190.086 32.3645C189.539 32.9312 189.236 33.372 189.175 33.6868C189.114 34.0016 189.053 34.3794 189.053 34.6313V35.0721C189.175 34.9461 189.357 34.8202 189.478 34.6943C190.207 34.1276 190.936 33.6868 191.725 33.372C192.515 33.0571 193.426 32.8052 194.397 32.6793C195.369 32.5534 196.401 32.4274 197.555 32.4274C197.312 32.6793 197.13 33.1831 197.009 33.9387C196.887 34.6943 196.826 35.4499 196.766 36.3314C196.705 36.8981 196.705 37.4649 196.705 37.9686C196.887 37.6538 197.069 37.3389 197.312 37.0241C197.677 36.5203 198.041 35.9536 198.466 35.4499C198.891 34.9461 199.316 34.5683 199.741 34.2535C200.227 33.8757 200.713 33.4979 201.199 33.246C201.685 32.9312 202.231 32.6793 202.778 32.4904C203.324 32.3015 203.932 32.1126 204.6 32.0496C205.268 31.9237 205.996 31.9237 206.786 31.9237L206.847 39.102C207.211 38.2834 207.575 37.4648 208.061 36.5833C208.547 35.7018 209.093 34.8832 209.701 34.1905C210.308 33.4349 211.097 32.8682 211.887 32.4274C212.737 31.9867 213.648 31.7978 214.741 31.8607C215.409 31.9867 216.016 32.3645 216.563 32.8682C217.109 33.4349 217.474 34.0016 217.656 34.5683C217.717 34.7572 217.838 35.198 218.02 35.7647C218.142 36.3314 218.324 37.0241 218.506 37.8427C218.81 37.087 219.235 36.3314 219.781 35.6388C220.328 34.8832 220.996 34.2535 221.725 33.6238C222.453 33.0571 223.243 32.5534 224.154 32.2385C225.004 31.9237 225.915 31.7348 226.887 31.8607C227.555 31.9867 228.162 32.3645 228.708 32.8682C229.255 33.4349 229.619 34.0016 229.801 34.5683C229.923 34.8832 230.044 35.5129 230.227 36.4574C230.409 37.4019 230.591 38.4723 230.834 39.6057C231.077 40.7392 231.38 41.8726 231.684 43.006C231.988 44.1394 232.413 45.021 232.838 45.6506C233.202 46.1544 233.567 46.4692 234.052 46.5322C234.538 46.5952 234.963 46.4692 235.51 46.1544C235.996 45.8396 236.482 45.3988 236.907 44.7691C237.332 44.1394 237.696 43.4468 238 42.6912C237.818 43.5097 237.453 44.3913 236.967 45.2728C236.482 46.1544 235.874 47.0359 235.267 47.7915C234.599 48.5472 233.931 49.2398 233.142 49.7435C232.413 50.2473 231.684 50.5621 231.016 50.6251C230.044 50.814 229.255 50.6881 228.648 50.2473C228.04 49.8065 227.494 49.1768 227.069 48.3583C226.644 47.5397 226.34 46.5952 226.097 45.5877C225.854 44.5172 225.611 43.5097 225.429 42.4393C225.247 41.3688 225.004 40.4243 224.761 39.5428C224.518 38.6612 224.275 37.9686 223.911 37.5278C223.547 37.087 223.121 36.8352 222.636 36.8981C222.15 36.8981 221.725 37.15 221.3 37.5278C220.875 37.9056 220.449 38.4094 220.085 39.102C219.721 39.7946 219.478 40.4873 219.296 41.3059L219.781 43.3208ZM103.428 23.0453C103.731 21.9748 103.974 21.0933 104.096 20.4636C104.278 19.8339 104.278 19.2042 104.156 18.7005C104.035 18.1968 103.792 17.63 103.367 17.0633C102.942 16.4966 102.274 15.741 101.302 14.7965L106.221 9.69612C107.193 10.4517 107.861 11.2073 108.286 12.0259C108.711 12.8445 108.954 13.6631 109.015 14.5446C109.075 15.4262 108.893 16.3077 108.59 17.1263C108.286 18.0079 107.861 18.7635 107.314 19.5191C106.768 20.2747 106.16 20.9044 105.492 21.534C104.885 22.2267 104.156 22.6675 103.428 23.0453ZM105.492 32.8052C105.553 32.1126 105.675 31.4829 105.857 30.9162C106.039 30.3495 106.221 29.8458 106.525 29.405C106.768 28.9642 107.071 28.5864 107.375 28.2086C107.679 27.8308 108.043 27.5789 108.468 27.3271C108.832 27.0752 109.258 26.8863 109.683 26.6974C110.108 26.5085 110.594 26.3826 111.079 26.3196C111.565 26.2566 112.051 26.1936 112.537 26.1307C113.023 26.0677 113.508 26.0677 114.055 26.1307C114.541 26.1307 115.087 26.1936 115.634 26.2566C116.18 26.3196 116.727 26.3825 117.213 26.4455C117.699 26.5085 118.245 26.6344 118.792 26.6974C119.278 26.7604 119.824 26.8863 120.371 26.9493C120.856 27.0122 121.342 27.1382 121.889 27.2011C122.375 27.2641 122.8 27.39 123.286 27.453C123.771 27.516 124.196 27.5789 124.622 27.6419C125.047 27.7049 125.411 27.7049 125.775 27.7049H126.261L126.14 28.2086C126.018 28.7753 125.836 29.405 125.593 29.9717C125.35 30.5384 125.047 31.1051 124.682 31.6089C124.318 32.1756 123.954 32.6793 123.589 33.1831C123.164 33.6868 122.739 34.1905 122.314 34.6943C121.828 35.198 121.403 35.6388 120.917 36.1425C120.431 36.5833 119.946 37.087 119.399 37.5278C118.852 37.9686 118.367 38.4094 117.881 38.8501C117.456 39.2279 116.97 39.6687 116.423 40.1095C115.938 40.4873 115.512 40.8651 115.087 41.2429C114.662 41.6207 114.298 41.9985 113.873 42.3134C113.508 42.6912 113.144 43.006 112.901 43.3208C112.84 43.3838 112.719 43.5097 112.658 43.5727H112.962C113.326 43.6357 113.751 43.6986 114.237 43.7616C114.723 43.8246 115.209 43.9505 115.634 44.0135C116.059 44.0765 116.545 44.2024 117.091 44.3283C117.638 44.4543 118.124 44.5802 118.61 44.6432C119.035 44.7691 119.581 44.8321 120.128 45.021C120.614 45.1469 121.099 45.2728 121.585 45.3358C122.071 45.3988 122.496 45.5247 122.921 45.5877C123.346 45.6506 123.711 45.7136 124.136 45.7136C124.5 45.7136 124.864 45.7136 125.168 45.7136C125.472 45.7136 125.715 45.6506 125.897 45.5877C126.079 45.5247 126.2 45.4617 126.322 45.3358C126.383 45.2728 126.504 45.1469 126.565 45.0839C126.626 45.021 126.686 44.895 126.747 44.8321L126.868 44.5802C126.929 44.5172 126.929 44.4543 126.99 44.3913V44.3283C127.051 44.1394 127.172 44.0135 127.415 44.0135H127.476H127.536C127.779 44.0765 127.84 44.2654 127.779 44.5172V44.5802L127.719 44.6432L127.658 44.8321C127.415 45.7766 127.172 46.5952 126.868 47.2878C126.565 47.9804 126.261 48.6101 125.897 49.0509C125.533 49.4917 125.107 49.9324 124.682 50.1843C124.257 50.4991 123.771 50.6881 123.286 50.877C122.8 51.0029 122.314 51.0659 121.767 51.1288C121.221 51.1288 120.674 51.1288 120.067 51.0029L118.306 50.751L116.423 50.4362C116.18 50.3732 115.877 50.3732 115.573 50.3103C115.27 50.2473 114.905 50.1843 114.602 50.1213C114.237 50.0584 113.873 49.9324 113.508 49.8695C113.144 49.8065 112.78 49.6806 112.355 49.6176C111.99 49.5546 111.565 49.4917 111.14 49.4287C110.715 49.3657 110.351 49.3028 109.926 49.2398C109.5 49.1768 109.136 49.1768 108.772 49.1768C108.407 49.1768 108.043 49.1768 107.679 49.2398C107.011 49.3028 106.403 49.4917 105.857 49.7435C105.614 49.8695 105.371 50.0584 105.189 50.1843C105.007 50.3732 104.885 50.5621 104.764 50.877L103.61 53.3327L104.035 50.6251C104.096 50.0584 104.278 49.4287 104.46 48.862C104.642 48.2953 104.885 47.7286 105.189 47.1619C105.492 46.5952 105.796 46.0914 106.16 45.5247C106.525 45.021 106.889 44.4543 107.254 43.9505C107.679 43.4468 108.043 42.943 108.468 42.5023C108.893 42.0615 109.318 41.6207 109.804 41.1799C110.29 40.7392 110.715 40.3614 111.14 39.9836C111.565 39.6058 112.051 39.2909 112.476 38.9761C112.658 38.8501 112.84 38.7242 113.083 38.5353L113.873 37.9686C114.176 37.7167 114.48 37.5278 114.784 37.2759C115.148 37.0241 115.452 36.7722 115.755 36.5203C116.059 36.2685 116.363 36.0166 116.727 35.7647C117.091 35.5129 117.395 35.198 117.699 35.0091C118.002 34.7572 118.306 34.5054 118.549 34.2535C118.852 34.0016 119.095 33.8127 119.278 33.6238C119.46 33.4349 119.642 33.246 119.763 33.1201L119.824 33.0571C119.52 33.0571 119.278 33.0571 118.974 33.0571C118.549 33.0571 118.124 32.9942 117.699 32.9312C117.274 32.8682 116.848 32.8052 116.363 32.7423C115.938 32.6793 115.452 32.6163 115.027 32.4904L112.294 31.9867C111.869 31.9237 111.444 31.8607 111.019 31.7978C110.594 31.7348 110.168 31.7348 109.804 31.7348C109.44 31.7348 109.075 31.7348 108.711 31.7978C108.347 31.8607 108.043 31.9237 107.679 31.9867C107.375 32.0496 107.132 32.1756 106.889 32.3645C106.646 32.5534 106.464 32.7423 106.221 32.9941L105.371 34.1276L105.492 32.8052ZM83.5698 5.47729C82.4767 6.61071 81.5051 7.87007 80.8371 9.31832C80.3513 10.3888 79.9262 11.7741 80.412 12.9075L80.7156 13.6001L80.1691 14.1039C79.1975 15.0484 78.2258 15.9929 77.3149 16.9374C75.8575 18.3857 74.5215 19.9599 73.3069 21.597C71.7887 23.486 70.4527 25.564 69.2989 27.7049C68.0843 29.9087 67.1734 32.3015 66.5662 34.8202C66.2018 36.3314 66.0803 37.9056 66.2018 39.4798C66.3232 40.991 66.6876 42.3763 67.2949 43.6986C67.9629 45.1469 68.9953 46.3433 70.1491 47.3508C71.6065 48.6101 73.3069 49.4917 75.068 50.1213C78.1044 51.1918 81.2622 51.8215 84.4808 51.6326C87.2135 51.5066 89.8855 50.877 92.3753 49.6176C94.7437 48.4212 96.8084 46.7841 98.5695 44.7061C100.391 42.5652 101.727 40.1725 102.699 37.5278C103.488 35.3869 104.096 32.8682 103.914 30.5384C103.731 28.6494 103.185 26.8233 102.213 25.1862C101.181 23.486 99.9055 21.9118 98.3873 20.5895C96.687 19.0783 94.9259 17.5041 93.1648 15.9929C91.2822 14.3557 89.4604 12.5926 87.6993 10.8295C86.0597 9.25535 84.7237 7.42929 83.5698 5.47729Z" fill="white"/>
</svg>
